<svg xmlns="http://www.w3.org/2000/svg" xmlns:xlink="http://www.w3.org/1999/xlink" width="1409" zoomAndPan="magnify" viewBox="0 0 1056.75 330.749987" height="441" preserveAspectRatio="xMidYMid meet" version="1.0"><defs><g/><clipPath id="3caa717ab3"><path d="M 0.273438 0 L 1056.226562 0 L 1056.226562 330.5 L 0.273438 330.5 Z M 0.273438 0 " clip-rule="nonzero"/></clipPath><clipPath id="e323d62307"><path d="M 0.273438 28.441406 L 273.363281 28.441406 L 273.363281 301.527344 L 0.273438 301.527344 Z M 0.273438 28.441406 " clip-rule="nonzero"/></clipPath><clipPath id="9015cb3cfd"><path d="M 136.816406 28.441406 C 61.40625 28.441406 0.273438 89.574219 0.273438 164.984375 C 0.273438 240.394531 61.40625 301.527344 136.816406 301.527344 C 212.230469 301.527344 273.363281 240.394531 273.363281 164.984375 C 273.363281 89.574219 212.230469 28.441406 136.816406 28.441406 Z M 136.816406 28.441406 " clip-rule="nonzero"/></clipPath><clipPath id="f2d3ce8808"><path d="M 58.550781 86.691406 L 214.765625 86.691406 L 214.765625 224.492188 L 58.550781 224.492188 Z M 58.550781 86.691406 " clip-rule="nonzero"/></clipPath><clipPath id="3d9ffb2818"><path d="M 141.28125 89.480469 L 213.96875 216.683594 C 214.890625 218.300781 214.886719 220.285156 213.953125 221.894531 C 213.015625 223.503906 211.296875 224.492188 209.4375 224.492188 L 64.199219 224.492188 C 62.339844 224.492188 60.617188 223.503906 59.683594 221.894531 C 58.75 220.285156 58.746094 218.300781 59.667969 216.683594 L 132.355469 89.480469 C 133.269531 87.878906 134.972656 86.890625 136.816406 86.890625 C 138.660156 86.890625 140.363281 87.878906 141.28125 89.480469 Z M 141.28125 89.480469 " clip-rule="nonzero"/></clipPath><clipPath id="62c1731c8d"><path d="M 70 72 L 225 72 L 225 296 L 70 296 Z M 70 72 " clip-rule="nonzero"/></clipPath><clipPath id="43942c04fa"><path d="M 197.890625 72.363281 L 224.746094 88.957031 L 97.117188 295.527344 L 70.257812 278.933594 Z M 197.890625 72.363281 " clip-rule="nonzero"/></clipPath><clipPath id="1baab02dd6"><path d="M 197.890625 72.363281 L 224.746094 88.957031 L 97.117188 295.523438 L 70.257812 278.929688 Z M 197.890625 72.363281 " clip-rule="nonzero"/></clipPath></defs><g clip-path="url(#3caa717ab3)"><path fill="#ffffff" d="M 0.273438 0 L 1056.226562 0 L 1056.226562 330.5 L 0.273438 330.5 Z M 0.273438 0 " fill-opacity="1" fill-rule="nonzero"/></g><g clip-path="url(#e323d62307)"><g clip-path="url(#9015cb3cfd)"><path fill="#2081e2" d="M 0.273438 28.441406 L 273.363281 28.441406 L 273.363281 301.527344 L 0.273438 301.527344 Z M 0.273438 28.441406 " fill-opacity="1" fill-rule="nonzero"/></g></g><g clip-path="url(#f2d3ce8808)"><g clip-path="url(#3d9ffb2818)"><path fill="#ffffff" d="M 55.207031 81.671875 L 218.667969 81.671875 L 218.667969 224.492188 L 55.207031 224.492188 Z M 55.207031 81.671875 " fill-opacity="1" fill-rule="nonzero"/></g></g><g fill="#000000" fill-opacity="1"><g transform="translate(347.729084, 227.936071)"><g><path d="M 9.5625 0 L 9.5625 -126.3125 L 97.640625 -126.3125 L 97.640625 -101.53125 L 40.09375 -101.53125 L 40.09375 -75.625 L 93.140625 -75.625 L 93.140625 -50.765625 L 40.09375 -50.765625 L 40.09375 -24.796875 L 97.640625 -24.796875 L 97.640625 0 Z M 9.5625 0 "/></g></g></g><g fill="#000000" fill-opacity="1"><g transform="translate(452.665025, 227.936071)"><g><path d="M 101.46875 -94.734375 L 68.953125 0 L 34.421875 0 L 1.96875 -94.734375 L 33.734375 -94.734375 L 51.1875 -29.484375 L 52.1875 -29.484375 L 69.703125 -94.734375 Z M 101.46875 -94.734375 "/></g></g></g><g fill="#000000" fill-opacity="1"><g transform="translate(553.838705, 227.936071)"><g><path d="M 53.84375 1.78125 C 43.9375 1.78125 35.394531 -0.175781 28.21875 -4.09375 C 21.039062 -8.019531 15.53125 -13.632812 11.6875 -20.9375 C 7.84375 -28.238281 5.921875 -36.925781 5.921875 -47 C 5.921875 -56.78125 7.851562 -65.34375 11.71875 -72.6875 C 15.582031 -80.03125 21.03125 -85.742188 28.0625 -89.828125 C 35.09375 -93.921875 43.378906 -95.96875 52.921875 -95.96875 C 59.660156 -95.96875 65.828125 -94.921875 71.421875 -92.828125 C 77.015625 -90.734375 81.847656 -87.628906 85.921875 -83.515625 C 89.992188 -79.398438 93.160156 -74.328125 95.421875 -68.296875 C 97.679688 -62.273438 98.8125 -55.378906 98.8125 -47.609375 L 98.8125 -40.09375 L 16.46875 -40.09375 L 16.46875 -57.609375 L 70.75 -57.609375 C 70.707031 -60.816406 69.945312 -63.671875 68.46875 -66.171875 C 66.988281 -68.679688 64.960938 -70.644531 62.390625 -72.0625 C 59.816406 -73.488281 56.863281 -74.203125 53.53125 -74.203125 C 50.164062 -74.203125 47.144531 -73.453125 44.46875 -71.953125 C 41.800781 -70.453125 39.6875 -68.414062 38.125 -65.84375 C 36.5625 -63.269531 35.738281 -60.359375 35.65625 -57.109375 L 35.65625 -39.296875 C 35.65625 -35.421875 36.414062 -32.035156 37.9375 -29.140625 C 39.457031 -26.242188 41.613281 -23.992188 44.40625 -22.390625 C 47.207031 -20.785156 50.539062 -19.984375 54.40625 -19.984375 C 57.070312 -19.984375 59.492188 -20.351562 61.671875 -21.09375 C 63.859375 -21.832031 65.734375 -22.921875 67.296875 -24.359375 C 68.859375 -25.796875 70.03125 -27.566406 70.8125 -29.671875 L 98.5 -28.859375 C 97.351562 -22.648438 94.832031 -17.253906 90.9375 -12.671875 C 87.050781 -8.085938 81.960938 -4.53125 75.671875 -2 C 69.390625 0.519531 62.113281 1.78125 53.84375 1.78125 Z M 53.84375 1.78125 "/></g></g></g><g fill="#000000" fill-opacity="1"><g transform="translate(656.307586, 227.936071)"><g><path d="M 9.5625 0 L 9.5625 -94.734375 L 38.859375 -94.734375 L 38.859375 -77.46875 L 39.84375 -77.46875 C 41.570312 -83.71875 44.390625 -88.375 48.296875 -91.4375 C 52.203125 -94.5 56.742188 -96.03125 61.921875 -96.03125 C 63.316406 -96.03125 64.753906 -95.9375 66.234375 -95.75 C 67.722656 -95.570312 69.101562 -95.296875 70.375 -94.921875 L 70.375 -68.703125 C 68.9375 -69.203125 67.054688 -69.59375 64.734375 -69.875 C 62.410156 -70.164062 60.34375 -70.3125 58.53125 -70.3125 C 54.957031 -70.3125 51.738281 -69.519531 48.875 -67.9375 C 46.019531 -66.351562 43.78125 -64.148438 42.15625 -61.328125 C 40.53125 -58.515625 39.71875 -55.21875 39.71875 -51.4375 L 39.71875 0 Z M 9.5625 0 "/></g></g></g><g fill="#000000" fill-opacity="1"><g transform="translate(727.198073, 227.936071)"><g><path d="M 53.84375 1.78125 C 43.9375 1.78125 35.394531 -0.175781 28.21875 -4.09375 C 21.039062 -8.019531 15.53125 -13.632812 11.6875 -20.9375 C 7.84375 -28.238281 5.921875 -36.925781 5.921875 -47 C 5.921875 -56.78125 7.851562 -65.34375 11.71875 -72.6875 C 15.582031 -80.03125 21.03125 -85.742188 28.0625 -89.828125 C 35.09375 -93.921875 43.378906 -95.96875 52.921875 -95.96875 C 59.660156 -95.96875 65.828125 -94.921875 71.421875 -92.828125 C 77.015625 -90.734375 81.847656 -87.628906 85.921875 -83.515625 C 89.992188 -79.398438 93.160156 -74.328125 95.421875 -68.296875 C 97.679688 -62.273438 98.8125 -55.378906 98.8125 -47.609375 L 98.8125 -40.09375 L 16.46875 -40.09375 L 16.46875 -57.609375 L 70.75 -57.609375 C 70.707031 -60.816406 69.945312 -63.671875 68.46875 -66.171875 C 66.988281 -68.679688 64.960938 -70.644531 62.390625 -72.0625 C 59.816406 -73.488281 56.863281 -74.203125 53.53125 -74.203125 C 50.164062 -74.203125 47.144531 -73.453125 44.46875 -71.953125 C 41.800781 -70.453125 39.6875 -68.414062 38.125 -65.84375 C 36.5625 -63.269531 35.738281 -60.359375 35.65625 -57.109375 L 35.65625 -39.296875 C 35.65625 -35.421875 36.414062 -32.035156 37.9375 -29.140625 C 39.457031 -26.242188 41.613281 -23.992188 44.40625 -22.390625 C 47.207031 -20.785156 50.539062 -19.984375 54.40625 -19.984375 C 57.070312 -19.984375 59.492188 -20.351562 61.671875 -21.09375 C 63.859375 -21.832031 65.734375 -22.921875 67.296875 -24.359375 C 68.859375 -25.796875 70.03125 -27.566406 70.8125 -29.671875 L 98.5 -28.859375 C 97.351562 -22.648438 94.832031 -17.253906 90.9375 -12.671875 C 87.050781 -8.085938 81.960938 -4.53125 75.671875 -2 C 69.390625 0.519531 62.113281 1.78125 53.84375 1.78125 Z M 53.84375 1.78125 "/></g></g></g><g fill="#000000" fill-opacity="1"><g transform="translate(829.666954, 227.936071)"><g><path d="M 92.265625 -65.8125 L 64.578125 -65.078125 C 64.285156 -67.046875 63.503906 -68.800781 62.234375 -70.34375 C 60.960938 -71.882812 59.304688 -73.097656 57.265625 -73.984375 C 55.234375 -74.867188 52.878906 -75.3125 50.203125 -75.3125 C 46.710938 -75.3125 43.742188 -74.609375 41.296875 -73.203125 C 38.847656 -71.804688 37.644531 -69.914062 37.6875 -67.53125 C 37.644531 -65.6875 38.394531 -64.082031 39.9375 -62.71875 C 41.476562 -61.363281 44.242188 -60.273438 48.234375 -59.453125 L 66.484375 -56 C 75.941406 -54.195312 82.984375 -51.195312 87.609375 -47 C 92.234375 -42.800781 94.566406 -37.25 94.609375 -30.34375 C 94.566406 -23.84375 92.644531 -18.1875 88.84375 -13.375 C 85.039062 -8.570312 79.847656 -4.84375 73.265625 -2.1875 C 66.691406 0.457031 59.171875 1.78125 50.703125 1.78125 C 37.171875 1.78125 26.507812 -1 18.71875 -6.5625 C 10.925781 -12.132812 6.472656 -19.609375 5.359375 -28.984375 L 35.15625 -29.734375 C 35.8125 -26.273438 37.515625 -23.640625 40.265625 -21.828125 C 43.023438 -20.023438 46.546875 -19.125 50.828125 -19.125 C 54.691406 -19.125 57.835938 -19.84375 60.265625 -21.28125 C 62.691406 -22.71875 63.925781 -24.628906 63.96875 -27.015625 C 63.925781 -29.148438 62.976562 -30.863281 61.125 -32.15625 C 59.269531 -33.457031 56.367188 -34.476562 52.421875 -35.21875 L 35.890625 -38.359375 C 26.398438 -40.085938 19.328125 -43.285156 14.671875 -47.953125 C 10.023438 -52.617188 7.722656 -58.570312 7.765625 -65.8125 C 7.722656 -72.144531 9.410156 -77.5625 12.828125 -82.0625 C 16.242188 -86.5625 21.097656 -90.003906 27.390625 -92.390625 C 33.679688 -94.773438 41.101562 -95.96875 49.65625 -95.96875 C 62.476562 -95.96875 72.585938 -93.285156 79.984375 -87.921875 C 87.390625 -82.554688 91.484375 -75.1875 92.265625 -65.8125 Z M 92.265625 -65.8125 "/></g></g></g><g fill="#000000" fill-opacity="1"><g transform="translate(927.263374, 227.936071)"><g><path d="M 63.03125 -94.734375 L 63.03125 -72.53125 L 3.265625 -72.53125 L 3.265625 -94.734375 Z M 15.796875 -117.4375 L 45.953125 -117.4375 L 45.953125 -29.796875 C 45.953125 -27.941406 46.25 -26.445312 46.84375 -25.3125 C 47.4375 -24.1875 48.304688 -23.382812 49.453125 -22.90625 C 50.609375 -22.4375 51.988281 -22.203125 53.59375 -22.203125 C 54.75 -22.203125 55.972656 -22.316406 57.265625 -22.546875 C 58.566406 -22.773438 59.546875 -22.96875 60.203125 -23.125 L 64.765625 -1.359375 C 63.328125 -0.941406 61.300781 -0.425781 58.6875 0.1875 C 56.070312 0.800781 52.957031 1.191406 49.34375 1.359375 C 42.269531 1.679688 36.210938 0.847656 31.171875 -1.140625 C 26.140625 -3.128906 22.296875 -6.242188 19.640625 -10.484375 C 16.992188 -14.722656 15.710938 -20.046875 15.796875 -26.453125 Z M 15.796875 -117.4375 "/></g></g></g><g clip-path="url(#62c1731c8d)"><g clip-path="url(#43942c04fa)"><g clip-path="url(#1baab02dd6)"><path fill="#2081e2" d="M 197.890625 72.363281 L 224.746094 88.957031 L 97.117188 295.527344 L 70.257812 278.933594 Z M 197.890625 72.363281 " fill-opacity="1" fill-rule="nonzero"/></g></g></g></svg>